<?xml version="1.0" encoding="UTF-8"?>
<svg id="Camada_2" data-name="Camada 2" xmlns="http://www.w3.org/2000/svg" viewBox="0 0 1000 300">
  <defs>
    <style>
      .cls-1 {
        fill: #fff;
        stroke-width: 0px;
      }
    </style>
  </defs>
  <g>
    <path class="cls-1" d="m37.16,210.52c-7.58,2.39-9.97,4.77-12.35,12.35-.17.54-.93.54-1.1,0-2.39-7.58-4.77-9.97-12.35-12.35-.54-.17-.54-.93,0-1.1,7.58-2.39,9.97-4.77,12.35-12.35.17-.54.93-.54,1.1,0,2.39,7.58,4.77,9.97,12.35,12.35.54.17.54.93,0,1.1Z"/>
    <path class="cls-1" d="m288.08,99.39c-7.58,2.39-9.97,4.77-12.35,12.35-.17.54-.93.54-1.1,0-2.39-7.58-4.77-9.97-12.35-12.35-.54-.17-.54-.93,0-1.1,7.58-2.39,9.97-4.77,12.35-12.35.17-.54.93-.54,1.1,0,2.39,7.58,4.77,9.97,12.35,12.35.54.17.54.93,0,1.1Z"/>
    <path class="cls-1" d="m217.88,274.5c-7.58,2.39-9.97,4.77-12.35,12.35-.17.54-.93.54-1.1,0-2.39-7.58-4.77-9.97-12.35-12.35-.54-.17-.54-.93,0-1.1,7.58-2.39,9.97-4.77,12.35-12.35.17-.54.93-.54,1.1,0,2.39,7.58,4.77,9.97,12.35,12.35.54.17.54.93,0,1.1Z"/>
    <path class="cls-1" d="m95.29,43.54c-7.58,2.39-9.97,4.77-12.35,12.35-.17.54-.93.54-1.1,0-2.39-7.58-4.77-9.97-12.35-12.35-.54-.17-.54-.93,0-1.1,7.58-2.39,9.97-4.77,12.35-12.35.17-.54.93-.54,1.1,0,2.39,7.58,4.77,9.97,12.35,12.35.54.17.54.93,0,1.1Z"/>
    <g>
      <path class="cls-1" d="m116.4,186.98c.49,2.26-1.34,3.97-3.54,3.15-2.72-1.02-4.75-3.01-6.23-5.43-.63-1.03-1.14-2.6.93-3.14,2.41-.63,8.3,2.96,8.84,5.42Z"/>
      <path class="cls-1" d="m97.61,189.06c2.22-.24,8.01,4.62,8.22,6.81.11,1.17-.62,1.75-1.45,2.17-1.07.53-2.34.47-3.08-.43-1.57-1.88-2.53-4.26-5.18-5.15-.56-.19-.55-1.46-.29-2.36.3-1.02,1.16-.78,1.77-1.04Z"/>
      <path class="cls-1" d="m94.55,203.72c.22,1.17.1,2.56-1.27,3.23-1.62.79-2.57-.65-3.05-1.73-.88-1.94-2.23-3.42-3.64-4.92-.75-.8-1.56-1.63-.47-2.89,1.06-1.24,1.92-.67,2.96-.08,2.53,1.44,4.6,3.25,5.48,6.4Z"/>
      <path class="cls-1" d="m283.68,185.92c-3.82-7.2-8.53-13.66-14.16-19.53-4.75-4.95-10.23-8.99-15.58-13.22-3.7-2.93-6.91-6.26-7.71-11.33-1.06-6.7-.27-13.44-.58-20.16-.37-8.17-2.6-15.72-5.77-22.97-3.55-8.11-8.71-15.41-13.87-22.57-6.54-9.08-10.54-19.19-13.23-29.86-1.72-6.83-3.82-13.48-7.43-19.48-4.33-7.2-10.09-12.89-18.98-13.88-11.14-1.24-19.22,4.52-26.02,12.36-4.83,5.56-8.94,11.7-12.98,17.88-3.11,4.77-7,9.04-11.48,12.53-9.68,7.54-20.67,12.95-31.67,18.27-1.27.62-2.58,1.26-4.37.56-15.46-5.98-31.58-8.51-48.06-7.32-7.98.58-14.72,5.81-14.2,16.03.29,5.6,2.02,10.72,3.54,16,2.18,7.55,5.28,14.71,8.66,21.71,4.24,8.79,9.44,17.08,14.97,25.15,2.22,3.24,3.57,6.92,1.67,10.88-1.02,2.13-2.34,4.12-3.4,6.23-2.4,4.79-5.22,9.5-6.17,14.81-.91,5.09-1.63,10.19-1.36,15.53.55,10.65,3.01,20.75,6.89,30.55,3.18,8.03,6.73,15.91,10.12,23.86,1.26,3.43,3.37,4.68,6.38,3.79.03-.61.07-1.22-.64-1.52-1.51-2.58-3.21-5.07-4.51-7.75-2.89-5.99-5.65-12.02-7.89-18.33-3.1-8.73-5.2-17.6-6.13-26.77-.66-6.49-.55-12.95,1.72-19.21,3.87-10.67,12.72-16.21,23.13-15.15,5.36.55,10.47,1.68,15.31,3.95,8.11,3.82,15.51,8.39,20.32,16.49,3.43,5.78,4.41,11.81,2.82,17.98-1.6,6.22-5.35,10.86-11.84,13.47-9.06,3.64-16.75,1.63-24.1-3.87-2.79-2.08-4.91-4.75-6.97-7.53-1.02-1.37-2.57-3.21-4.47-1.8-1.55,1.14-.32,2.78.35,4.28,1.37,3.08,3.59,5.45,6.01,7.59,5.84,5.17,12.73,8.1,20.57,7.67,5.38-.3,10.73-1.35,16.04-2.36,3.62-.68,6.99-.27,10.41.91,5.15,1.77,9.58,4.85,14.2,7.6,4.97,2.96,10.25,4.82,16.22,4.79,5.28-.02,10.6-.85,15.86.46,2.81.7,5.27,1.89,7.31,4.01,1.5,1.56,0,3.2.36,4.78.16.71,0,1.49-.06,2.23-.15,1.71-.02,3.21,2.25,3.2,2.16,0,2.44-1.28,2.5-3.16.15-4.55-.32-9.22,1.48-13.56,4.65-11.21,12.06-19.88,23.23-25.13,5.64-2.65,11.58-3.02,17.32-1.46,10.2,2.76,16.87,9.35,19.01,20.02.27,1.33.25,3.22,2.37,2.69,1.73-.43,3.25-1.32,3.31-3.62.12-4.58-2.15-8.24-4.64-11.66-3.78-5.18-8.48-9.42-14.26-12.38-.51-.26-1.39-.37-1.01-1.58,3.41-10.74,6.26-21.65,10.11-32.24.54-1.49.95-3.22,2.48-4.33,4.45-3.22,9.33.17,10.74,4.11,1.31,3.64,1.25,7.4.66,11.12-1.16,7.21-.22,14.13,3.4,20.41,5.4,9.35,13.1,15.63,24.36,16.63,5.19.46,6.74-1.05,5.53-6.12-1.72-7.25-4.52-14.07-8.03-20.67ZM80.56,108.81c-1.93,4-4.41,7.63-7.77,10.59-1.92,1.7-4.1,2.08-6.14.36-8.07-6.79-13.37-15.42-16.66-25.34-1.43-4.93,1.44-8.49,8.06-8.84,6.68-.35,13.08,1.31,18.5,5.63,6.56,5.22,7.11,11.16,4.01,17.6Zm158.04,9.02c2.26,11.61,2.85,23.21,1.43,35.02-1.1,9.15-3.8,17.52-9.18,24.99-3.84,5.33-8.59,9.8-13.64,13.94-7.42,6.1-15,11.97-23.17,17.09-9.23,5.78-19.28,8.52-30.01,8.57-11.87.06-23.5-1.95-34.87-5.39-3.2-.97-3.15-1.03-1.45-3.79,3.43-5.55,4.67-11.2,1.88-17.58-3.23-7.38-6.47-14.69-12.56-20.23-2.22-2.03-4.59-3.92-7.01-5.7-.98-.72-1.12-1.24-.62-2.27,2.2-4.56,4.8-8.92,6.39-13.77,2.93-8.89,6.21-17.7,6.26-27.25.02-4.63-.62-9.21-1.06-13.81-.27-2.84-.76-5.62-1.26-8.42-1.08-6.07-4.01-11.14-8.4-15.25-3.29-3.09-2.03-4.89.97-7.06,4.95-3.56,10.6-5.84,16.17-8.21,3.98-1.69,7.84-3.93,12.17-4.52,4.37-.6,6.86-3.28,8.16-6.99,3.07-8.77,7.44-16.81,13.53-23.77,4.56-5.22,9.27-10.42,16.02-13.08,3.37-1.33,6.57-.43,9.45.92,5.85,2.73,10.04,7.42,13.39,12.87,3.33,5.44,5.62,11.29,7.07,18.4,1.39,4.31,1.13,9.59.64,14.86-.15,1.61.42,2.61,1.58,3.66,5.17,4.72,10.43,9.38,14.63,15.05,4.22,5.69,7.2,11.99,9.44,18.71,1.44,4.31,3.18,8.51,4.05,13.02Z"/>
      <path class="cls-1" d="m199.69,176.49c-2.68.44-5.12,1.47-7.89,1.08-1.49-.21-2.63,1.1-3.22,2.58-.74,1.88-1.16,3.99-2.31,5.57-3.36,4.62-13.93,6.61-19.04,3.86-1.03-.56-1.8-1.4-2.48-2.3-1.22-1.62-.85-3.31.24-4.73,1.22-1.59,2.57-.36,3.66.32,2.99,1.86,6.05,2.78,9.59,1.74,3.09-.91,4.65-3.35,5.36-6.42,1.13-4.85-1.85-8.46-2.94-12.64-.27-1.06-1.11-1-2.04-1-2.22,0-4.47,0-6.66-.3-3.38-.47-5.85-2.05-4.3-6.92,2.13-6.73,12.21-12.78,18.77-10.32,2.67,1,3.48,2.34,3.01,5.14-.49,2.92-1.82,5.61-2.07,8.61-.3,3.71.07,7.31,3.37,9.45,3.53,2.29,7.43,1.76,10.97-.33,3.32-1.96,2.94-5.2,2.14-8.22-.7-2.6.7-3.66,2.66-4.11,1.81-.41,3.27.07,4.12,2.32,2.39,6.32-1.18,10.44-4.94,14.51-1.58,1.71-4.16,1.1-6,2.11Z"/>
      <path class="cls-1" d="m202.17,112.42c2.7,0,5.92-.05,8.53,2.63,1.05,1.08,1.75,1.9.93,3.38-.84,1.52-2.07,2.17-3.76,1.86-.55-.1-1.07-.37-1.6-.58-4.99-1.92-8.05,0-8.8,5.5-.05.37-.13.74-.25,1.08-.56,1.53-.29,3.83-3.06,3.32-2.5-.46-4.01-2.42-3.71-4.84.41-3.42,7.74-11.47,11.73-12.36Z"/>
      <path class="cls-1" d="m136.99,149.45c2.34-.14,4.69-.48,7.01-.34,1.69.1,3.43.96,3.85,2.82.25,1.09-.62,2.27-1.71,2.65-1.01.35-2.29.54-3.28.25-5.69-1.69-8.29,2.32-9.88,6.59-.71,1.91-1.28,3.75-3.73,2.97-2.45-.78-2.36-2.74-1.73-4.86,1.49-4.95,4.02-8.86,9.46-10.07Z"/>
      <path class="cls-1" d="m143.21,189.39c-2.2-.28-2.89,1.5-3.83,2.83-.78,1.11-1.58,1.92-3,1.17-1.3-.68-2.28-1.36-1.87-3.28.73-3.41,5.62-7.57,9.06-7.04,1.61.25,3.59.96,3.56,3.05-.04,2.33-2.05,2.86-3.92,3.27Z"/>
      <path class="cls-1" d="m222.43,126.03c1.47-.3,2.64-.73,3.33.62.63,1.24.66,2.48-.4,3.52-.58.57-.91,1.27-1.83,1.64-2.49,1-4.96,2.05-6.92,4.07-1.3,1.34-2.78.2-3.73-.7-.82-.79-1.33-2.19-.08-3.22,3.02-2.51,6.33-4.57,9.63-5.93Z"/>
      <path class="cls-1" d="m146.89,193.8c.65-.1,1.33-.34,1.96-.26,1.51.2,3.48-.08,3.91,1.93.37,1.76-.88,2.58-2.49,3.14-2.05.71-2.49,3.01-3.83,4.46-1.44,1.56-2.85,2.11-4.63.93-1.89-1.26-.88-2.83-.09-4.14,1-1.66,1.24-3.75,3.02-5,.69-.49,1.17-1.21,2.14-1.06Z"/>
      <path class="cls-1" d="m142.37,174.08c.54,1.13-.26,2.59-1.25,3.15-2.83,1.59-5.09,4-8.07,5.37-.91.42-1.65.63-2.27-.04-.6-.66-.5-1.53-.05-2.37,1.9-3.57,4.89-6,8.3-8,1.83-1.07,2.75-.24,3.34,1.91Z"/>
      <path class="cls-1" d="m228.64,149.92c1.63-.51,3.73-.75,5.92-.29,1.35.29,2.92.49,2.63,2.15-.31,1.72-1.53,3.56-3.54,3.06-2.49-.62-4.76-.42-7.12.23-1.75.48-2.96-.71-3.17-1.94-.16-.97.55-2.54,2.32-2.58.83-.02,1.66-.34,2.95-.63Z"/>
      <path class="cls-1" d="m221.84,143.13c-.88-.27-1.94.37-2.5-.79-.51-1.04-.41-2.05.51-2.7,3.03-2.14,6.41-3.65,9.78-5.16,1.54-.69,2.27.44,2.86,1.49.58,1.04.22,2.19-.78,2.64-3.3,1.5-7.02,2.02-9.86,4.52Z"/>
      <path class="cls-1" d="m196.85,48.88c-.89-5.22-3.21-9.43-5.3-13.75-3.22-6.64-7.98-6.49-13.23-3.38-8.71,5.17-12.86,13.73-15.24,23.24-.73,2.91.62,5.1,3.67,5.91,6.16,1.63,12.33,3.26,18.55,4.59,6.6,1.41,10.86-1.07,12.09-7.02.68-3.28.61-6.74-.54-9.59Zm-8.76,9.99c-5.39-.49-10.34-2.34-15.16-4.65-2.1-1.01-2.62-2.62-1.78-4.62,1.57-3.72,3.09-7.51,5.79-10.6,3.1-3.54,5.62-3.72,8.04.9,2.59,4.94,4.74,10.02,6.03,14.19,1.17,5.23,1.18,5.16-2.92,4.78Z"/>
    </g>
  </g>
  <g>
    <path class="cls-1" d="m317.17,117.86v-18.41h86.72v18.41h-32.33v87.18h-22.07v-87.18h-32.33Z"/>
    <path class="cls-1" d="m418.23,205.04v-105.59h71.15v18.41h-48.82v25.16h45.16v18.41h-45.16v25.21h49.03v18.41h-71.36Z"/>
    <path class="cls-1" d="m507.16,205.04v-105.59h41.66c7.97,0,14.79,1.42,20.44,4.25s9.97,6.84,12.94,12.01c2.97,5.17,4.46,11.25,4.46,18.23s-1.51,13.04-4.54,18.07-7.4,8.89-13.12,11.57c-5.72,2.68-12.64,4.02-20.75,4.02h-27.89v-17.94h24.28c4.26,0,7.8-.58,10.62-1.75,2.82-1.17,4.92-2.92,6.32-5.26,1.39-2.34,2.09-5.24,2.09-8.71s-.7-6.46-2.09-8.87c-1.39-2.41-3.51-4.24-6.34-5.49-2.84-1.25-6.4-1.88-10.7-1.88h-15.05v87.34h-22.32Zm57.02-48.05l26.24,48.05h-24.64l-25.68-48.05h24.08Z"/>
    <path class="cls-1" d="m620.64,205.04h-23.92l36.45-105.59h28.77l36.4,105.59h-23.92l-26.45-81.46h-.82l-26.5,81.46Zm-1.5-41.5h56.51v17.43h-56.51v-17.43Z"/>
    <path class="cls-1" d="m711.02,99.45h27.53l29.08,70.94h1.24l29.08-70.94h27.53v105.59h-21.65v-68.73h-.88l-27.32,68.21h-14.75l-27.32-68.47h-.88v68.98h-21.65v-105.59Z"/>
    <path class="cls-1" d="m866.15,99.45v105.59h-22.32v-105.59h22.32Z"/>
    <path class="cls-1" d="m902.76,205.04h-23.92l36.45-105.59h28.77l36.4,105.59h-23.92l-26.45-81.46h-.82l-26.5,81.46Zm-1.5-41.5h56.51v17.43h-56.51v-17.43Z"/>
  </g>
</svg>